<?xml version="1.0" encoding="UTF-8" standalone="no"?>
<!DOCTYPE svg PUBLIC "-//W3C//DTD SVG 1.1//EN" "http://www.w3.org/Graphics/SVG/1.1/DTD/svg11.dtd">
<svg width="100%" height="100%" viewBox="0 0 1720 1265" version="1.1" xmlns="http://www.w3.org/2000/svg" xmlns:xlink="http://www.w3.org/1999/xlink" xml:space="preserve" xmlns:serif="http://www.serif.com/" style="fill-rule:evenodd;clip-rule:evenodd;stroke-linejoin:round;stroke-miterlimit:2;">
    <g transform="matrix(1,0,0,1,-2160,-6079.1)">
        <g id="Parkitecture-web" serif:id="Parkitecture web" transform="matrix(0.895833,0,0,0.658802,2160,6079.1)">
            <rect x="0" y="0" width="1920" height="1920" style="fill:none;"/>
            <clipPath id="_clip1">
                <rect x="0" y="0" width="1920" height="1920"/>
            </clipPath>
            <g clip-path="url(#_clip1)">
                <g transform="matrix(1.8295,0,0,2.48773,-796.317,-1050.3)">
                    <g transform="matrix(1.64265,0,0,1.60731,-655.879,-3634.67)">
                        <path d="M665.433,2732.8C664.65,2732.8 664.258,2732.3 664.258,2731.3L664.846,2525.2C664.846,2524.4 665.237,2524 666.02,2524L722.381,2524C733.535,2524 743.516,2526.75 752.322,2532.25C761.129,2537.75 768.076,2545 773.164,2554C778.252,2563 780.796,2572.8 780.796,2583.4C780.796,2592 778.888,2600 775.072,2607.4C771.256,2614.8 766.706,2620.8 761.422,2625.4C767.098,2631.2 771.501,2637.9 774.632,2645.5C777.763,2653.1 779.329,2661.1 779.329,2669.5C779.329,2681.1 776.589,2691.7 771.109,2701.3C765.63,2710.9 758.242,2718.55 748.947,2724.25C739.651,2729.95 729.328,2732.8 717.977,2732.8L665.433,2732.8ZM700.071,2606.8L722.381,2606.8C729.23,2606.8 734.759,2604.35 738.966,2599.45C743.174,2594.55 745.277,2589.2 745.277,2583.4C745.277,2577 743.027,2571.45 738.526,2566.75C734.025,2562.05 728.643,2559.7 722.381,2559.7L700.071,2559.7L700.071,2606.8ZM699.778,2696.2L717.977,2696.2C725.023,2696.2 731.089,2693.55 736.177,2688.25C741.265,2682.95 743.81,2676.7 743.81,2669.5C743.81,2662.3 741.265,2656.1 736.177,2650.9C731.089,2645.7 725.023,2643.1 717.977,2643.1L700.071,2643.1L699.778,2696.2Z" style="fill:rgb(76,66,54);fill-rule:nonzero;"/>
                    </g>
                    <g transform="matrix(1.64265,0,0,1.60731,-655.879,-3634.67)">
                        <path d="M801.638,2801.24C800.855,2801.24 800.464,2800.74 800.464,2799.74L800.758,2525.5C800.758,2524.5 801.247,2524 802.225,2524L834.809,2524C835.787,2524 836.277,2524.5 836.277,2525.5L835.983,2764.34L896.454,2764.34C897.432,2764.34 897.921,2764.84 897.921,2765.84L897.921,2799.74C897.921,2800.74 897.432,2801.24 896.454,2801.24L801.638,2801.24Z" style="fill:rgb(76,66,54);fill-rule:nonzero;"/>
                    </g>
                    <g transform="matrix(1.64265,0,0,1.60731,-655.879,-3634.67)">
                        <path d="M907.021,2731.3L943.421,2525.2C943.617,2524.4 944.106,2524 944.889,2524L987.453,2524C988.236,2524 988.725,2524.4 988.921,2525.2L1023.85,2731.3C1024.05,2732.3 1023.66,2732.8 1022.68,2732.8L990.095,2732.8C989.312,2732.8 988.823,2732.3 988.627,2731.3L985.398,2709.4L945.476,2709.4L942.247,2731.3C942.051,2732.3 941.562,2732.8 940.779,2732.8L908.196,2732.8C907.413,2732.8 907.021,2732.3 907.021,2731.3ZM951.347,2677.3L979.527,2677.3L967.492,2593L965.731,2581.9L964.557,2593L951.347,2677.3Z" style="fill:rgb(76,66,54);fill-rule:nonzero;"/>
                    </g>
                    <g transform="matrix(1.64265,0,0,1.60731,-655.879,-3634.67)">
                        <path d="M1044.99,2803.04C1043.42,2803.04 1042.64,2802.34 1042.64,2800.94L1042.35,2526.4C1042.35,2524.8 1043.13,2524 1044.69,2524L1071.11,2524L1120.82,2682.42L1119.26,2526.4C1119.26,2524.8 1120.14,2524 1121.9,2524L1150.96,2524C1152.13,2524 1152.72,2524.8 1152.72,2526.4L1153.01,2801.24C1153.01,2802.44 1152.52,2803.04 1151.55,2803.04L1125.71,2803.04L1075.02,2662.62L1076.99,2800.64C1076.99,2802.24 1076.1,2803.04 1074.34,2803.04L1044.99,2803.04Z" style="fill:rgb(76,66,54);fill-rule:nonzero;"/>
                    </g>
                    <g transform="matrix(1.64265,0,0,1.60731,-655.879,-3634.67)">
                        <path d="M1179.73,2732.8C1178.94,2732.8 1178.55,2732.3 1178.55,2731.3L1179.14,2525.5C1179.14,2524.5 1179.53,2524 1180.31,2524L1213.19,2524C1213.97,2524 1214.37,2524.5 1214.37,2525.5L1214.37,2596.6L1260.45,2525.2C1261.04,2524.4 1261.72,2524 1262.51,2524L1296.26,2524C1297.05,2524 1297.24,2524.4 1296.85,2525.2L1246.07,2608L1303.02,2731.6C1303.41,2732.4 1302.92,2732.8 1301.55,2732.8L1265.74,2732.8C1264.76,2732.8 1264.17,2732.4 1263.97,2731.6L1224.35,2643.4L1214.07,2659.9L1214.07,2731.3C1214.07,2732.3 1213.68,2732.8 1212.9,2732.8L1179.73,2732.8Z" style="fill:rgb(76,66,54);fill-rule:nonzero;"/>
                    </g>
                    <g transform="matrix(1.64265,0,0,1.60731,-662.871,-3766.57)">
                        <path d="M727.518,3085.8C716.95,3085.8 707.312,3083.05 698.603,3077.55C689.895,3072.05 682.948,3064.75 677.762,3055.65C672.576,3046.55 669.983,3036.5 669.983,3025.5L669.983,3011.7C669.983,3010.7 670.472,3010.2 671.45,3010.2L704.328,3010.2C705.11,3010.2 705.502,3010.7 705.502,3011.7L705.502,3025.5C705.502,3032.1 707.654,3037.75 711.96,3042.45C716.265,3047.15 721.451,3049.5 727.518,3049.5C733.584,3049.5 738.77,3047.1 743.076,3042.3C747.381,3037.5 749.534,3031.9 749.534,3025.5C749.534,3018.1 744.837,3011.7 735.443,3006.3C732.312,3004.5 727.42,3001.7 720.766,2997.9C714.112,2994.1 707.85,2990.5 701.979,2987.1C691.216,2980.7 683.241,2972.65 678.055,2962.95C672.869,2953.25 670.276,2942.3 670.276,2930.1C670.276,2918.9 672.918,2908.85 678.202,2899.95C683.486,2891.05 690.482,2884 699.19,2878.8C707.899,2873.6 717.341,2871 727.518,2871C737.89,2871 747.43,2873.65 756.139,2878.95C764.847,2884.25 771.794,2891.35 776.98,2900.25C782.166,2909.15 784.759,2919.1 784.759,2930.1L784.759,2954.7C784.759,2955.5 784.368,2955.9 783.585,2955.9L750.708,2955.9C749.925,2955.9 749.534,2955.5 749.534,2954.7L749.24,2930.1C749.24,2923.1 747.088,2917.4 742.782,2913C738.477,2908.6 733.389,2906.4 727.518,2906.4C721.451,2906.4 716.265,2908.75 711.96,2913.45C707.654,2918.15 705.502,2923.7 705.502,2930.1C705.502,2936.7 706.872,2942.2 709.611,2946.6C712.351,2951 717.341,2955.2 724.582,2959.2C725.561,2959.8 727.469,2960.85 730.306,2962.35C733.144,2963.85 736.226,2965.55 739.553,2967.45C742.88,2969.35 745.864,2971 748.506,2972.4C751.148,2973.8 752.763,2974.7 753.35,2975.1C763.135,2980.7 770.865,2987.55 776.54,2995.65C782.215,3003.75 785.053,3013.7 785.053,3025.5C785.053,3036.9 782.46,3047.15 777.274,3056.25C772.088,3065.35 765.141,3072.55 756.432,3077.85C747.724,3083.15 738.085,3085.8 727.518,3085.8Z" style="fill:rgb(76,66,54);fill-rule:nonzero;"/>
                    </g>
                    <g transform="matrix(1.64265,0,0,1.60731,-664.317,-3766.57)">
                        <path d="M807.069,3082.8C806.09,3082.8 805.601,3082.3 805.601,3081.3L806.188,2904.08C806.188,2903.28 806.58,2902.88 807.362,2902.88L863.723,2902.88C881.728,2902.88 895.965,2908.48 906.434,2919.68C916.904,2930.88 922.139,2946.08 922.139,2965.28C922.139,2979.48 919.399,2991.78 913.92,3002.18C908.44,3012.58 901.297,3020.58 892.491,3026.18C883.684,3031.78 874.095,3034.58 863.723,3034.58L841.414,3034.58L841.414,3081.3C841.414,3082.3 840.925,3082.8 839.946,3082.8L807.069,3082.8ZM841.414,2998.28L863.723,2998.28C869.986,2998.28 875.416,2995.23 880.015,2989.13C884.614,2983.03 886.913,2975.08 886.913,2965.28C886.913,2957.48 884.859,2951.08 880.749,2946.08C876.639,2941.08 870.964,2938.58 863.723,2938.58L841.414,2938.88L841.414,2998.28Z" style="fill:rgb(76,66,54);fill-rule:nonzero;"/>
                    </g>
                    <g transform="matrix(1.64265,0,0,1.60731,-672.997,-3766.57)">
                        <path d="M917.442,3081.3L953.842,2875.2C954.038,2874.4 954.527,2874 955.31,2874L997.874,2874C998.657,2874 999.146,2874.4 999.342,2875.2L1034.27,3081.3C1034.47,3082.3 1034.08,3082.8 1033.1,3082.8L1000.52,3082.8C999.733,3082.8 999.244,3082.3 999.048,3081.3L995.819,3059.4L955.897,3059.4L952.668,3081.3C952.472,3082.3 951.983,3082.8 951.2,3082.8L918.617,3082.8C917.834,3082.8 917.442,3082.3 917.442,3081.3ZM961.768,3027.3L989.948,3027.3L977.913,2943L976.152,2931.9L974.977,2943L961.768,3027.3Z" style="fill:rgb(76,66,54);fill-rule:nonzero;"/>
                    </g>
                    <g transform="matrix(1.64265,0,0,1.60731,-655.075,-3765.85)">
                        <path d="M1100.62,3085.8C1089.85,3085.8 1080.12,3083.05 1071.41,3077.55C1062.7,3072.05 1055.8,3064.7 1050.71,3055.5C1045.62,3046.3 1043.08,3036 1043.08,3024.6L1043.37,2962.73C1043.37,2951.73 1045.87,2941.68 1050.86,2932.58C1055.85,2923.48 1062.7,2916.18 1071.41,2910.68C1080.12,2905.18 1089.85,2902.43 1100.62,2902.43C1111.38,2902.43 1121.07,2905.13 1129.68,2910.53C1138.29,2915.93 1145.14,2923.18 1150.23,2932.28C1155.31,2941.38 1157.86,2951.53 1157.86,2962.73L1157.86,2976.53C1157.86,2977.33 1157.47,2977.73 1156.68,2977.73L1123.81,2977.73C1123.02,2977.73 1122.63,2977.33 1122.63,2976.53L1122.63,2962.73C1122.63,2956.13 1120.53,2950.43 1116.32,2945.63C1112.11,2940.83 1106.88,2938.43 1100.62,2938.43C1093.57,2938.43 1088.19,2940.88 1084.47,2945.78C1080.75,2950.68 1078.89,2956.33 1078.89,2962.73L1078.89,3024.6C1078.89,3032 1081,3038 1085.2,3042.6C1089.41,3047.2 1094.55,3049.5 1100.62,3049.5C1106.88,3049.5 1112.11,3046.95 1116.32,3041.85C1120.53,3036.75 1122.63,3031 1122.63,3024.6L1122.63,3010.8C1122.63,3010 1123.02,3009.6 1123.81,3009.6L1156.98,3009.6C1157.76,3009.6 1158.15,3010 1158.15,3010.8L1158.15,3024.6C1158.15,3036 1155.56,3046.3 1150.37,3055.5C1145.18,3064.7 1138.29,3072.05 1129.68,3077.55C1121.07,3083.05 1111.38,3085.8 1100.62,3085.8Z" style="fill:rgb(76,66,54);fill-rule:nonzero;"/>
                    </g>
                    <g transform="matrix(1.64265,0,0,1.60731,-635.037,-3766.57)">
                        <path d="M1180.75,3082.8C1179.97,3082.8 1179.58,3082.3 1179.58,3081.3L1179.87,2875.2C1179.87,2874.4 1180.26,2874 1181.05,2874L1275.28,2874C1276.06,2874 1276.45,2874.5 1276.45,2875.5L1276.45,2909.1C1276.45,2909.9 1276.06,2910.3 1275.28,2910.3L1215.1,2910.3L1215.1,2957.1L1275.28,2957.1C1276.06,2957.1 1276.45,2957.5 1276.45,2958.3L1276.74,2992.2C1276.74,2993 1276.35,2993.4 1275.57,2993.4L1215.1,2993.4L1215.1,3045.9L1275.57,3045.9C1276.35,3045.9 1276.74,3046.4 1276.74,3047.4L1276.74,3081.6C1276.74,3082.4 1276.35,3082.8 1275.57,3082.8L1180.75,3082.8Z" style="fill:rgb(76,66,54);fill-rule:nonzero;"/>
                    </g>
                </g>
            </g>
        </g>
    </g>
</svg>
