<?xml version="1.0" encoding="UTF-8" standalone="no"?>
<!DOCTYPE svg PUBLIC "-//W3C//DTD SVG 1.1//EN" "http://www.w3.org/Graphics/SVG/1.1/DTD/svg11.dtd">
<svg width="100%" height="100%" viewBox="0 0 720 400" version="1.1" xmlns="http://www.w3.org/2000/svg" xmlns:xlink="http://www.w3.org/1999/xlink" xml:space="preserve" xmlns:serif="http://www.serif.com/" style="fill-rule:evenodd;clip-rule:evenodd;stroke-linejoin:round;stroke-miterlimit:2;">
    <rect id="Artboard1" x="0" y="0" width="720" height="400" style="fill:none;"/>
    <g id="Artboard11" serif:id="Artboard1">
        <g transform="matrix(0.420408,0,0,0.420408,-43.592,-206.683)">
            <g transform="matrix(5.99698,0,0,1,-28327.6,116.866)">
                <path d="M4811.77,864.452C4810.58,864.452 4809.62,858.662 4809.62,851.531C4809.62,844.399 4810.58,838.609 4811.77,838.609L4858,838.609C4859.19,838.609 4860.15,844.399 4860.15,851.531C4860.15,858.662 4859.19,864.452 4858,864.452L4811.77,864.452Z" style="fill:white;"/>
            </g>
            <g transform="matrix(5.99698,0,0,1,-28620.5,116.866)">
                <path d="M4811.77,864.452C4810.58,864.452 4809.62,858.662 4809.62,851.531C4809.62,844.399 4810.58,838.609 4811.77,838.609L4858,838.609C4859.19,838.609 4860.15,844.399 4860.15,851.531C4860.15,858.662 4859.19,864.452 4858,864.452L4811.77,864.452Z" style="fill:white;"/>
            </g>
            <g transform="matrix(5.99698,0,0,1,-28034.7,116.866)">
                <path d="M4811.77,864.452C4810.58,864.452 4809.62,858.662 4809.62,851.531C4809.62,844.399 4810.58,838.609 4811.77,838.609L4858,838.609C4859.19,838.609 4860.15,844.399 4860.15,851.531C4860.15,858.662 4859.19,864.452 4858,864.452L4811.77,864.452Z" style="fill:white;"/>
            </g>
            <g transform="matrix(5.99698,0,0,1,-27741.8,116.866)">
                <path d="M4811.77,864.452C4810.58,864.452 4809.62,858.662 4809.62,851.531C4809.62,844.399 4810.58,838.609 4811.77,838.609L4858,838.609C4859.19,838.609 4860.15,844.399 4860.15,851.531C4860.15,858.662 4859.19,864.452 4858,864.452L4811.77,864.452Z" style="fill:white;"/>
            </g>
            <g transform="matrix(5.99698,0,0,1,-27448.9,116.866)">
                <path d="M4811.77,864.452C4810.58,864.452 4809.62,858.662 4809.62,851.531C4809.62,844.399 4810.58,838.609 4811.77,838.609L4858,838.609C4859.19,838.609 4860.15,844.399 4860.15,851.531C4860.15,858.662 4859.19,864.452 4858,864.452L4811.77,864.452Z" style="fill:white;"/>
            </g>
            <g transform="matrix(1.21671,0,0,1.21671,-5103.82,487.407)">
                <path d="M4565.12,230.811C4565.12,243.018 4563.44,253.931 4560.07,263.55C4556.7,273.169 4551.91,281.323 4545.71,288.013C4539.51,294.702 4531.97,299.829 4523.08,303.394C4514.19,306.958 4504.18,308.74 4493.05,308.74C4484.36,308.74 4475.47,307.91 4466.39,306.25C4457.31,304.59 4448.32,301.953 4439.44,298.34L4439.44,100L4464.93,100L4464.93,156.982L4463.75,184.229C4471.08,174.365 4478.91,167.407 4487.27,163.354C4495.61,159.302 4504.57,157.275 4514.15,157.275C4522.54,157.275 4529.92,159.033 4536.26,162.549C4542.61,166.064 4547.93,171.021 4552.23,177.417C4556.53,183.813 4559.75,191.528 4561.9,200.562C4564.05,209.595 4565.12,219.678 4565.12,230.811ZM4539.05,231.982C4539.05,224.268 4538.48,217.188 4537.36,210.742C4536.24,204.297 4534.46,198.779 4532.02,194.189C4529.57,189.6 4526.45,186.011 4522.64,183.423C4518.83,180.835 4514.29,179.541 4509.02,179.541C4505.8,179.541 4502.52,180.054 4499.2,181.079C4495.88,182.104 4492.44,183.813 4488.88,186.206C4485.31,188.599 4481.55,191.772 4477.6,195.728C4473.64,199.683 4469.42,204.59 4464.93,210.449L4464.93,281.787C4469.91,283.74 4474.98,285.278 4480.16,286.401C4485.34,287.524 4490.27,288.086 4494.95,288.086C4500.81,288.086 4506.4,287.158 4511.73,285.303C4517.05,283.447 4521.74,280.347 4525.79,276.001C4529.84,271.655 4533.07,265.894 4535.46,258.716C4537.85,251.538 4539.05,242.627 4539.05,231.982Z" style="fill:white;fill-rule:nonzero;"/>
            </g>
            <g transform="matrix(1.21671,0,0,1.21671,-5011.94,490.943)">
                <path d="M4683.04,306.982C4673.96,306.982 4666.93,304.492 4661.95,299.512C4656.97,294.531 4654.48,287.744 4654.48,279.15L4654.48,120.947L4610.97,120.947L4610.97,100L4680.26,100L4680.26,270.801C4680.26,274.609 4680.45,277.515 4680.84,279.517C4681.23,281.519 4681.8,282.983 4682.53,283.911C4683.26,284.839 4684.19,285.376 4685.31,285.522C4686.44,285.669 4687.73,285.742 4689.19,285.742L4724.06,285.742L4724.06,306.982L4683.04,306.982Z" style="fill:white;fill-rule:nonzero;"/>
            </g>
            <g transform="matrix(1.21671,0,0,1.21671,-4906.43,487.735)">
                <path d="M4863.8,306.982L4862.34,280.029C4848.47,299.756 4831.97,309.619 4812.83,309.619C4804.23,309.619 4796.76,307.861 4790.41,304.346C4784.07,300.83 4778.77,295.85 4774.52,289.404C4770.27,282.959 4767.1,275.244 4765,266.26C4762.9,257.275 4761.85,247.363 4761.85,236.523C4761.85,225.977 4763.24,215.967 4766.02,206.494C4768.81,197.021 4773.1,188.696 4778.91,181.519C4784.73,174.341 4792.17,168.652 4801.25,164.453C4810.34,160.254 4821.18,158.154 4833.77,158.154C4838.75,158.154 4843.69,158.545 4848.57,159.326C4853.45,160.107 4858.63,161.328 4864.1,162.988L4886.65,157.275L4886.65,306.982L4863.8,306.982ZM4787.92,234.912C4787.92,243.115 4788.53,250.488 4789.76,257.031C4790.98,263.574 4792.83,269.116 4795.32,273.657C4797.81,278.198 4800.94,281.689 4804.7,284.131C4808.46,286.572 4812.88,287.793 4817.95,287.793C4824.4,287.793 4831.21,284.912 4838.39,279.15C4845.57,273.389 4853.11,264.844 4861.02,253.516L4861.02,185.254C4857.11,183.398 4852.69,181.885 4847.76,180.713C4842.83,179.541 4837.58,178.955 4832.02,178.955C4817.66,178.955 4806.72,183.691 4799.2,193.164C4791.68,202.637 4787.92,216.553 4787.92,234.912Z" style="fill:white;fill-rule:nonzero;"/>
            </g>
            <g transform="matrix(1.21671,0,0,1.21671,-4822.57,490.943)">
                <path d="M4934.26,159.912L4956.97,159.912L4957.99,183.643C4962.29,178.564 4966.44,174.341 4970.44,170.972C4974.45,167.603 4978.38,164.893 4982.23,162.842C4986.09,160.791 4990.02,159.351 4994.03,158.521C4998.03,157.69 5002.18,157.275 5006.48,157.275C5021.61,157.275 5033.07,161.743 5040.83,170.679C5048.59,179.614 5052.48,193.066 5052.48,211.035L5052.48,306.982L5026.99,306.982L5026.99,213.086C5026.99,201.563 5024.84,193.042 5020.54,187.524C5016.24,182.007 5009.85,179.248 5001.35,179.248C4998.23,179.248 4995.18,179.712 4992.2,180.64C4989.22,181.567 4986.12,183.179 4982.9,185.474C4979.67,187.769 4976.18,190.869 4972.42,194.775C4968.66,198.682 4964.44,203.564 4959.75,209.424L4959.75,306.982L4934.26,306.982L4934.26,159.912Z" style="fill:white;fill-rule:nonzero;"/>
            </g>
            <g transform="matrix(1.21671,0,0,1.21671,-4741.56,490.943)">
                <path d="M5231.48,306.982L5196.47,306.982L5127.91,228.174L5127.91,306.982L5102.43,306.982L5102.43,100L5127.91,100L5127.91,227.148L5193.98,159.912L5227.67,159.912L5158.68,227.734L5231.48,306.982Z" style="fill:white;fill-rule:nonzero;"/>
            </g>
            <g transform="matrix(1.19218,0,0,1.19218,-4986.56,886.239)">
                <path d="M4555.89,266.846C4555.89,272.021 4555.01,276.66 4553.26,280.762C4551.5,284.863 4549.11,288.501 4546.08,291.675C4543.05,294.849 4539.53,297.559 4535.53,299.805C4531.53,302.051 4527.26,303.906 4522.71,305.371C4518.17,306.836 4513.51,307.91 4508.73,308.594C4503.94,309.277 4499.25,309.619 4494.66,309.619C4484.7,309.619 4475.55,309.18 4467.2,308.301C4458.85,307.422 4450.67,306.006 4442.66,304.053L4442.66,280.615C4451.25,283.057 4459.8,284.912 4468.3,286.182C4476.79,287.451 4485.24,288.086 4493.64,288.086C4505.84,288.086 4514.88,286.426 4520.74,283.105C4526.6,279.785 4529.53,275.049 4529.53,268.896C4529.53,266.26 4529.06,263.892 4528.13,261.792C4527.21,259.692 4525.52,257.69 4523.08,255.786C4520.64,253.882 4516.85,251.904 4511.73,249.854C4506.6,247.803 4499.59,245.459 4490.71,242.822C4484.07,240.869 4477.94,238.647 4472.32,236.157C4466.71,233.667 4461.85,230.713 4457.75,227.295C4453.65,223.877 4450.42,219.873 4448.08,215.283C4445.74,210.693 4444.56,205.273 4444.56,199.023C4444.56,194.922 4445.52,190.43 4447.42,185.547C4449.32,180.664 4452.57,176.123 4457.16,171.924C4461.75,167.725 4467.95,164.233 4475.77,161.45C4483.58,158.667 4493.34,157.275 4505.06,157.275C4510.82,157.275 4517.22,157.593 4524.25,158.228C4531.28,158.862 4538.61,159.961 4546.23,161.523L4546.23,184.229C4538.22,182.275 4530.62,180.835 4523.45,179.907C4516.27,178.979 4510.04,178.516 4504.77,178.516C4498.42,178.516 4493.07,179.004 4488.73,179.98C4484.38,180.957 4480.87,182.3 4478.18,184.009C4475.5,185.718 4473.57,187.72 4472.4,190.015C4471.23,192.31 4470.64,194.775 4470.64,197.412C4470.64,200.049 4471.15,202.441 4472.18,204.59C4473.2,206.738 4475.11,208.813 4477.89,210.815C4480.67,212.817 4484.56,214.819 4489.53,216.821C4494.52,218.823 4501.01,220.996 4509.02,223.34C4517.71,225.879 4525.03,228.54 4530.99,231.323C4536.95,234.106 4541.78,237.207 4545.49,240.625C4549.2,244.043 4551.86,247.9 4553.48,252.197C4555.09,256.494 4555.89,261.377 4555.89,266.846Z" style="fill:white;fill-rule:nonzero;"/>
            </g>
            <g transform="matrix(1.19218,0,0,1.19218,-4897.07,888.05)">
                <path d="M4730.06,230.811C4730.06,243.896 4728.23,255.322 4724.57,265.088C4720.91,274.854 4715.85,282.959 4709.41,289.404C4702.96,295.85 4695.35,300.684 4686.56,303.906C4677.77,307.129 4668.25,308.74 4657.99,308.74C4653.31,308.74 4648.64,308.496 4644,308.008C4639.36,307.52 4634.65,306.689 4629.87,305.518L4629.87,367.041L4604.38,367.041L4604.38,159.912L4627.08,159.912L4628.69,184.521C4636.02,174.463 4643.83,167.407 4652.13,163.354C4660.43,159.302 4669.42,157.275 4679.09,157.275C4687.48,157.275 4694.86,159.033 4701.2,162.549C4707.55,166.064 4712.88,171.021 4717.17,177.417C4721.47,183.813 4724.69,191.528 4726.84,200.562C4728.99,209.595 4730.06,219.678 4730.06,230.811ZM4703.99,231.982C4703.99,224.268 4703.43,217.188 4702.3,210.742C4701.18,204.297 4699.4,198.779 4696.96,194.189C4694.52,189.6 4691.39,186.011 4687.58,183.423C4683.77,180.835 4679.23,179.541 4673.96,179.541C4670.74,179.541 4667.47,180.054 4664.15,181.079C4660.82,182.104 4657.38,183.813 4653.82,186.206C4650.25,188.599 4646.49,191.772 4642.54,195.728C4638.58,199.683 4634.36,204.59 4629.87,210.449L4629.87,281.787C4634.56,283.74 4639.49,285.278 4644.66,286.401C4649.84,287.524 4654.92,288.086 4659.9,288.086C4673.67,288.086 4684.46,283.423 4692.27,274.097C4700.08,264.771 4703.99,250.732 4703.99,231.982Z" style="fill:white;fill-rule:nonzero;"/>
            </g>
            <g transform="matrix(1.19218,0,0,1.19218,-4786.54,884.842)">
                <path d="M4863.8,306.982L4862.34,280.029C4848.47,299.756 4831.97,309.619 4812.83,309.619C4804.23,309.619 4796.76,307.861 4790.41,304.346C4784.07,300.83 4778.77,295.85 4774.52,289.404C4770.27,282.959 4767.1,275.244 4765,266.26C4762.9,257.275 4761.85,247.363 4761.85,236.523C4761.85,225.977 4763.24,215.967 4766.02,206.494C4768.81,197.021 4773.1,188.696 4778.91,181.519C4784.73,174.341 4792.17,168.652 4801.25,164.453C4810.34,160.254 4821.18,158.154 4833.77,158.154C4838.75,158.154 4843.69,158.545 4848.57,159.326C4853.45,160.107 4858.63,161.328 4864.1,162.988L4886.65,157.275L4886.65,306.982L4863.8,306.982ZM4787.92,234.912C4787.92,243.115 4788.53,250.488 4789.76,257.031C4790.98,263.574 4792.83,269.116 4795.32,273.657C4797.81,278.198 4800.94,281.689 4804.7,284.131C4808.46,286.572 4812.88,287.793 4817.95,287.793C4824.4,287.793 4831.21,284.912 4838.39,279.15C4845.57,273.389 4853.11,264.844 4861.02,253.516L4861.02,185.254C4857.11,183.398 4852.69,181.885 4847.76,180.713C4842.83,179.541 4837.58,178.955 4832.02,178.955C4817.66,178.955 4806.72,183.691 4799.2,193.164C4791.68,202.637 4787.92,216.553 4787.92,234.912Z" style="fill:white;fill-rule:nonzero;"/>
            </g>
            <g transform="matrix(1.19218,0,0,1.19218,-4697.53,885.54)">
                <path d="M5048.52,301.563C5041.88,304.102 5035.07,305.981 5028.09,307.202C5021.1,308.423 5013.9,309.033 5006.48,309.033C4983.24,309.033 4965.34,302.734 4952.79,290.137C4940.24,277.539 4933.97,259.131 4933.97,234.912C4933.97,223.291 4935.78,212.744 4939.39,203.271C4943,193.799 4948.08,185.693 4954.62,178.955C4961.17,172.217 4968.98,167.017 4978.06,163.354C4987.14,159.692 4997.15,157.861 5008.09,157.861C5015.71,157.861 5022.84,158.398 5029.48,159.473C5036.12,160.547 5042.47,162.305 5048.52,164.746L5048.52,189.063C5042.17,185.742 5035.7,183.325 5029.11,181.812C5022.52,180.298 5015.71,179.541 5008.68,179.541C5002.13,179.541 4995.96,180.786 4990.15,183.276C4984.34,185.767 4979.23,189.355 4974.84,194.043C4970.44,198.73 4966.98,204.443 4964.44,211.182C4961.9,217.92 4960.63,225.537 4960.63,234.033C4960.63,251.807 4964.95,265.112 4973.59,273.95C4982.23,282.788 4994.22,287.207 5009.56,287.207C5016.49,287.207 5023.2,286.426 5029.7,284.863C5036.19,283.301 5042.47,280.957 5048.52,277.832L5048.52,301.563Z" style="fill:white;fill-rule:nonzero;"/>
            </g>
            <g transform="matrix(1.19218,0,0,1.19218,-4603.6,884.842)">
                <path d="M5223.42,225.684C5223.42,229.297 5223.37,232.324 5223.28,234.766C5223.18,237.207 5223.03,239.502 5222.84,241.65L5119.56,241.65C5119.56,256.689 5123.76,268.237 5132.16,276.294C5140.56,284.351 5152.67,288.379 5168.49,288.379C5172.79,288.379 5177.08,288.208 5181.38,287.866C5185.68,287.524 5189.83,287.061 5193.83,286.475C5197.84,285.889 5201.67,285.229 5205.33,284.497C5208.99,283.765 5212.39,282.959 5215.51,282.08L5215.51,303.027C5208.58,304.98 5200.74,306.567 5192,307.788C5183.26,309.009 5174.2,309.619 5164.83,309.619C5152.23,309.619 5141.39,307.91 5132.31,304.492C5123.23,301.074 5115.78,296.118 5109.97,289.624C5104.16,283.13 5099.86,275.171 5097.08,265.747C5094.3,256.323 5092.9,245.654 5092.9,233.74C5092.9,223.389 5094.39,213.599 5097.37,204.37C5100.35,195.142 5104.7,187.036 5110.41,180.054C5116.12,173.071 5123.13,167.529 5131.43,163.428C5139.73,159.326 5149.15,157.275 5159.7,157.275C5169.95,157.275 5179.04,158.887 5186.95,162.109C5194.86,165.332 5201.52,169.897 5206.94,175.806C5212.36,181.714 5216.46,188.892 5219.25,197.339C5222.03,205.786 5223.42,215.234 5223.42,225.684ZM5196.91,222.021C5197.2,215.479 5196.57,209.497 5195,204.077C5193.44,198.657 5191.02,193.994 5187.75,190.088C5184.48,186.182 5180.4,183.13 5175.52,180.933C5170.64,178.735 5164.98,177.637 5158.53,177.637C5152.96,177.637 5147.89,178.711 5143.3,180.859C5138.7,183.008 5134.75,186.035 5131.43,189.941C5128.11,193.848 5125.42,198.535 5123.37,204.004C5121.32,209.473 5120.05,215.479 5119.56,222.021L5196.91,222.021Z" style="fill:white;fill-rule:nonzero;"/>
            </g>
        </g>
    </g>
</svg>
